<svg xmlns="http://www.w3.org/2000/svg" xmlns:xlink="http://www.w3.org/1999/xlink" version="1.1" x="0px" y="0px" viewBox="0 0 18.4 25.6" enable-background="new 0 0 18.4 25.6" xml:space="preserve"><g><g><path fill="#FFFFFF" d="M7.3,24.2c-1.6,0-2.9-0.8-3.5-1.8C3.4,21.8,3,20.8,3,19.9c0-0.4,0.3-0.6,0.7-0.6c0.4,0,0.6,0.3,0.6,0.7    c0,0.5,0.2,1.3,0.5,1.8c0.5,0.7,1.7,1.4,3.2,1.1c1.6-0.3,2.1-1.5,2.9-3.6c0.3-0.8,0.7-1.8,1.2-2.7c0.4-0.8,0.9-1.5,1.4-2.2    c0.7-1,1.4-2,1.8-3.1c0.8-2.3,0.4-4.5-0.9-6.2c-1.4-1.7-3.6-2.5-6.1-2.3C6,3,4.7,3.9,3.8,5.8C3.6,6.1,3.4,6.6,3.4,7    c0,0.4-0.3,0.6-0.7,0.6C2.3,7.6,2.1,7.3,2.1,7c0-0.7,0.4-1.5,0.5-1.8c1.1-2.3,2.8-3.4,5.7-3.8c2.9-0.3,5.6,0.7,7.2,2.7    c1.6,2,2,4.7,1.1,7.4c-0.4,1.2-1.2,2.3-1.9,3.4c-0.5,0.7-1,1.4-1.4,2.1c-0.5,0.8-0.8,1.7-1.1,2.5c-0.8,2-1.5,3.9-3.9,4.4    C8,24.1,7.6,24.2,7.3,24.2z"></path></g></g><g><path fill="#FFFFFF" d="M10.7,12.7c-0.1-1.3,0.7-1.6,0.8-2.8c0.1-1.3-0.6-2.7-1.5-3c-1.7-0.6-3.3,0.5-3.3,2c0,1.9,2.6,2.3,2.7,4.3   c0,1.7-1.1,4.9-3.4,4.3c-0.7-0.2-0.9-0.8-0.9-1.3c-0.1-1.7,1.8-2.1,1.7-3.6c0-1.4-0.9-1-1.5-2.4c-0.8-4.5,4.6-6,6.6-3.1   C13,8.5,12.6,12,10.7,12.7z"></path></g></svg>